<svg version="1.1" xmlns="http://www.w3.org/2000/svg" xmlns:xlink="http://www.w3.org/1999/xlink" x="0px" y="0px" width="100px" height="100px" viewBox="0 0 512 512" xml:space="preserve">
	<g>
		<path fill="#ffffff" d="M376,136.011c-8.284,0-15,6.716-15,15v210c0,8.284,6.716,15,15,15s15-6.716,15-15v-210 C391,142.727,384.284,136.011,376,136.011z"/>
		<path fill="#ffffff" d="M316,211.011c-8.284,0-15,6.716-15,15v60c0,8.284,6.716,15,15,15s15-6.716,15-15v-60 C331,217.727,324.284,211.011,316,211.011z"/>
		<path fill="#ffffff" d="M436,196.011c-8.284,0-15,6.716-15,15v90c0,8.284,6.716,15,15,15s15-6.716,15-15v-90 C451,202.727,444.284,196.011,436,196.011z"/>
		<path fill="#ffffff" d="M497,166.011c-8.284,0-15,6.716-15,15v150c0,8.284,6.716,15,15,15s15-6.716,15-15v-150 C512,172.727,505.284,166.011,497,166.011z"/>
		<path fill="#ffffff" d="M0,181.011v150c0,8.284,6.716,15,15,15h61v-180H15C6.716,166.011,0,172.727,0,181.011z"/>
		<path fill="#ffffff" d="M247.398,63.723L106,162.701V349.32L247.398,448.3c9.836,6.885,23.602-0.094,23.602-12.289v-360 C271,63.946,257.376,56.738,247.398,63.723L247.398,63.723z"/>
	</g>
	<g>
		<rect x="103.508" y="247.773" transform="matrix(-0.7072 0.707 -0.707 -0.7072 502.7878 303.7874)" fill="#A61416" width="169.963" height="16.462"/>
	</g>
	<g>
		<rect x="180.28" y="171.015" transform="matrix(-0.707 0.7072 -0.7072 -0.707 502.8313 303.6699)" fill="#A61416" width="16.461" height="169.962"/>
	</g>
</svg>
