<svg height="512" viewBox="0 0 512 512" width="512" xmlns="http://www.w3.org/2000/svg">
	<g>
		<path fill="#ffffff" d="m376 136.011c-8.284 0-15 6.716-15 15v210c0 8.284 6.716 15 15 15s15-6.716 15-15v-210c0-8.284-6.716-15-15-15z"/>
		<path fill="#ffffff" d="m316 211.011c-8.284 0-15 6.716-15 15v60c0 8.284 6.716 15 15 15s15-6.716 15-15v-60c0-8.284-6.716-15-15-15z"/>
		<path fill="#ffffff" d="m436 196.011c-8.284 0-15 6.716-15 15v90c0 8.284 6.716 15 15 15s15-6.716 15-15v-90c0-8.284-6.716-15-15-15z"/>
		<path fill="#ffffff" d="m497 166.011c-8.284 0-15 6.716-15 15v150c0 8.284 6.716 15 15 15s15-6.716 15-15v-150c0-8.284-6.716-15-15-15z"/>
		<path fill="#ffffff" d="m0 181.011v150c0 8.284 6.716 15 15 15h61v-180h-61c-8.284 0-15 6.716-15 15z"/>
		<path fill="#ffffff" d="m247.398 63.723-141.398 98.978v186.62l141.398 98.979c9.836 6.885 23.602-.094 23.602-12.289v-360c0-12.065-13.624-19.273-23.602-12.288z"/>
	</g>
</svg>